<svg xmlns="http://www.w3.org/2000/svg" version="1.1" viewBox="-5.0 -10.0 110.0 135.0">
 <path d="m65.289 71.273c-6.25 5.25-14.309 8.4141-23.102 8.4141-19.836 0-35.938-16.102-35.938-35.938s16.102-35.938 35.938-35.938 35.938 16.102 35.938 35.938c0 8.793-3.1641 16.852-8.4141 23.102l23.125 23.125c1.2188 1.2188 1.2188 3.2031 0 4.4219s-3.2031 1.2188-4.4219 0zm-23.102-57.211c-16.383 0-29.688 13.305-29.688 29.688s13.305 29.688 29.688 29.688 29.688-13.305 29.688-29.688-13.305-29.688-29.688-29.688z"/>
</svg>